<!--?xml version="1.0" encoding="utf-8"?-->
<!-- Generator: Adobe Illustrator 27.0.1, SVG Export Plug-In . SVG Version: 6.00 Build 0)  -->
<svg xmlns:xlink="http://www.w3.org/1999/xlink" version="1.1" id="onload-logo"
     xmlns="http://www.w3.org/2000/svg" x="0px" y="0px" viewBox="0 0 569.1 176.2" style=""
     xml:space="preserve">
<style type="text/css">
	.st0{fill-rule:evenodd;clip-rule:evenodd;fill:none;stroke:#039341;stroke-width:2;stroke-miterlimit:10;}
</style>
    <g>
	<path class="st0 lpOTwyhK_0" d="M513.8,4.3h4.1c1.2,0.9,2.9,1.7,3,3.4c-0.3,1.8-1.8,3.1-3.1,4.2c-5.1,4.1-9.2,9.2-13.4,14.2
		c-2.7,3.5-5.7,6.9-7.9,10.8c8.7-3.3,16.9-7.9,25.6-11.1c2.8-0.9,6-1.5,8.7,0c1.7,1.1,3.3,3.1,2.7,5.2c-0.8,2.5-3,4.2-5,5.6
		c-3.3,2.2-6.9,4.1-10.4,5.9c-2.6,1.3-5.5,2.7-8.5,2.1c-0.2-0.8-0.4-1.7,0.2-2.4c1.7-2.1,4.5-3.1,6.5-4.9c1.3-0.9,0.4-3-0.8-3.6
		c-2.2-1-4.7-0.3-6.8,0.5c-3.1,1.3-6.2,2.6-9.2,4c1.1,0.6,2.4,1,3.4,1.9c0.6,1.2,0.9,2.6,1.3,3.9c0.9,2.8,3.3,4.7,5.7,6
		c5.5,2.8,12.6,3.1,17.9-0.5c1.5-0.9,4.2-2.7,5.1-0.2c-1.1,3-4.1,4.9-6.8,6.4c-6.3,3-13.4,4.6-20.3,3.9c-4.5-0.5-9.5-2.3-11.9-6.4
		c-1.8-2.7-2.1-6-2.6-9.1c-3.2,3.9-5.5,8.5-8.6,12.5c-1.5,2.1-4.1,2.9-6.4,3.8c-1.9,0.7-3.9,1.4-5.9,1.4c-1.1,0-2.1-1.1-1.8-2.2
		c0.9-2.8,2.8-5.1,4.4-7.5c8.3-12.1,16.5-24.3,25-36.3c2-2.8,3.6-6.1,6.7-8C507.3,5.9,510.6,4.9,513.8,4.3L513.8,4.3z"></path>
        <path class="st0 lpOTwyhK_1" d="M256.1,12.9c1.2-0.4,2.9-0.8,3.9,0.2c1.2,1.9,0.6,4.4-0.1,6.4c-1.4,3.6-3.4,7-5.3,10.4
		c-5.6,9.5-11.8,18.6-17.8,27.7c-3.8,5.7-7.8,11.5-10.1,18c-0.8,2.1-0.9,4.9,0.8,6.6c1.8,1.5,4.4,0.8,6.4,0.1
		c5.6-2.2,10.4-6,14.9-9.9c0.8-0.8,2-1.3,3.1-0.6c1.1,2.8-1.3,5-3.2,6.7c-5.6,4.9-12,9-18.8,12.1c-4.4,1.9-9,3.6-13.8,3.3
		c-3-0.3-6.3-1.4-7.9-4.1c-1.5-2.5-1.2-5.6-0.4-8.3c1.8-6.3,5.6-11.6,8.7-17.2c6.5-11.4,14.5-22.1,19-34.5c1.1-2.6,1.1-5.6,2-8.2
		C243.2,18.2,249.5,15.2,256.1,12.9L256.1,12.9z"></path>
        <path class="st0 lpOTwyhK_2" d="M31,23.5c12.9-4.6,27.1-6.6,40.6-3.6c9.2,2,18,6.2,24.7,12.9c5.8,5.7,9.6,13.4,10.2,21.5
		c0.8,10-2.3,20.1-7.7,28.5c-6.2,9.7-14.9,17.5-23.9,24.5c-8.5,6.5-17.6,12.2-26.7,17.8c-1.7,0.9-2.2,3-2.6,4.7
		c-1.6,7.3-3.7,14.6-4.4,22.1c-0.2,2.5,0.1,5-0.1,7.6c-2.5,1.7-5.5,2.5-8.2,3.8c-6.1,2.8-12.4,5.3-18.2,8.7h-2c-1.4-2-0.5-4.4,0-6.5
		c2.2-8.1,4.8-16.2,7.2-24.2c0.6-2.3,1.7-4.5,1.9-6.9c-1.9-1.9-4.9-3.6-4.2-6.7c1.1-4.4,5.7-6.4,9.3-8.7c2.7-1.5,3.4-4.7,4.6-7.2
		c7.9-17.3,15.5-34.8,24-51.9c2.5-4.6,4.6-9.4,7.6-13.7c1.2-1.8,3.5-3.5,5.7-2.2c0.9,2.3,0,4.9-0.5,7.2c-4.3,17.3-10.4,34-15.5,51.1
		c-1.1,3.9-2.5,7.8-3.3,11.8c2.2-1.1,4.2-2.5,6.1-4c9.3-6.9,17.6-15.2,24-24.9c4.4-6.9,8.1-14.6,8.4-22.9c0.3-7-2.6-13.9-7.6-18.7
		C73.5,36.8,64,33.5,54.6,32.2c-10.6-1.4-21.9-0.2-31.3,5.1c-5.5,3.1-10.2,7.9-12.8,13.7c-1.3,2.9-0.9,6.3-2.2,9.2
		c-3.2,0.5-4.3-3.1-5-5.5v-4.5C4,46.5,5.5,43.1,7.5,40C13.1,32,21.9,26.9,31,23.5L31,23.5z"></path>
        <path class="st0 lpOTwyhK_3" d="M195.2,27.3c-5.6-4.9-12.9-7.8-20.3-7.9c-3.8,0-7.5,1.5-10.9,3.2c-1.9,1.1-4.1,2.2-5.3,4.2
		c0.1,0.3,0.4,0.9,0.5,1.2c3.3,0.7,6.7-0.2,10.1,0.2c7.7,0.7,14.6,5.8,18.2,12.5c2.4,4.5,4.1,9.5,4.8,14.6
		c-3.4,1.9-7.1,3.3-10.6,5.2c-9.1,4.8-18.2,10.5-24.4,19c-3.4,5.3-6.3,11.2-6.5,17.6c-0.2,3.2,1.2,6.6,4.1,8.2
		c4.3,2.5,9.5,2.3,14.3,1.7c11-1.5,20.8-8.1,27.8-16.6c6.7-8.2,11.5-18.2,12.6-28.9C210.3,48.8,204.8,35.7,195.2,27.3z M190.7,83.2
		c-2,5-5.6,9.9-11,11.5c-2.5,0.7-5.6,1.5-7.7-0.5c-1.5-1.5-0.9-3.9-0.7-5.7c1.8-9.9,8.8-17.8,16.2-24.2c1.8-1.5,3.6-3.1,5.6-4.3
		C194.3,67.8,193.5,75.8,190.7,83.2z"></path>
        <path class="st0 lpOTwyhK_4" d="M395.6,23.2c1.3-0.2,2.9-0.4,4,0.5c1.8,1.3,1.7,4.3,0,5.7c-1.9,1.6-4.3,2.3-6.6,3c-2.6,0.7-5.4,1.4-8.1,0.9
		c-1.2-0.2-2.6-1.1-2.3-2.4c0.5-2.2,2.6-3.5,4.5-4.4C389.9,25.2,392.6,23.8,395.6,23.2L395.6,23.2z"></path>
        <path class="st0 lpOTwyhK_5" d="M470.7,33.4c1-1.8-1.3-2.9-2.7-3.3c-5.6-1.6-11.7-1.7-17.4-0.3c-8.1,1.9-15.8,5.3-23.2,8.9
		c-6.7,3.5-13.2,7.5-18.6,12.8c-2.3,2.4-4.8,5.5-4,9c0.5,2.6,3.3,3.7,5.7,3.8c4.1,0.2,8.1-0.9,12-1.9c7.8-2.2,14.7-6.6,21.8-10.4
		c0,2.5-0.4,5,0.7,7.4c0.7,1.7,2,3.5,4,3.7c2.8,0.3,5.6,0,8.4-0.2c1.5-0.2,3.2-0.3,4.2-1.5c0.3-1.2-0.9-2.1-1.1-3.2
		c0-1.7,0.5-3.2,1-4.8C464,46.5,467.2,39.8,470.7,33.4z M456.1,35.7c-2.8,3.2-5.5,6.5-8.2,9.8c-2.6,3.2-6.2,5.2-9.7,7.2
		c-3.1,1.7-6.3,3.5-9.8,4.2c-1,0.1-2.3,0.4-3-0.5c0.3-2.5,1.9-4.5,3.4-6.3c5-5.6,11.6-9.2,18-13c3.1-1.5,6.4-3.9,10.1-3.2
		C457.1,34.6,456.4,35.1,456.1,35.7z"></path>
        <path class="st0 lpOTwyhK_6" d="M394.4,34.7c1.3-0.2,2.7-0.9,3.9,0c0.2,2-0.9,3.8-2.1,5.3c-3.7,4.6-6.9,9.6-10.1,14.7
		c-0.7,1.3-1.7,2.6-1.7,4.2c0.3,1.6,2.3,1.5,3.6,1.6c3.8,0.1,6.3-3.1,9.7-4.2c1.2-0.4,2.6,0.8,2.3,2c-0.4,0.9-1.2,1.6-1.9,2.3
		c-7.4,5.7-16.6,8.9-25.9,9.5c-2.6,0.1-5.9-0.2-7.4-2.7c-1-2.3,0.2-4.7,1.4-6.6c4.9-7.5,9.7-15,14.5-22.6c0.6-1.3,2.2-1.3,3.5-1.5
		C387.7,36.2,391.1,35.7,394.4,34.7L394.4,34.7z"></path>
        <path class="st0 lpOTwyhK_7" d="M351.3,37.2c2.3-1.1,4.9-2,7.5-1.7c1.8,0.2,4,0.4,5,2.1c1.1,3.7-1.6,8.3-5.6,8.5c-2.6,0.3-4.1-2.1-6.2-3.1
		c-2.1,0.1-3.1,3.2-1.6,4.6c3.1,3.8,7.1,7,9.4,11.4c0.8,1.5,0.8,3.3,0,4.7c-2.1,4.1-6.3,6.5-10.4,8.1c-8.1,3-16.8,4.4-25.4,4.1
		c-1.9-0.2-4-0.2-5.5-1.5c-1-1.5-0.1-3.3,0.6-4.7c2-3.3,5.5-6,9.4-6.3c3.4-0.1,5.9,2.6,8.4,4.4c1.7,1.5,4.4,2,6.3,0.5
		c0.5-1.6-0.4-3.1-1.2-4.4c-2.5-3.5-5.9-6.2-8.4-9.6c-1-1.4-1.8-3.2-1.1-4.8c0.9-2.1,3-3.5,4.9-4.7
		C341.8,41.9,346.5,39.5,351.3,37.2L351.3,37.2z"></path>
        <path class="st0 lpOTwyhK_8" d="M326,41.1c-1.2-1.7-3.3-2.2-5.2-2.7c-4-0.9-8.1-1.3-12.1-0.8c-5.3,0.9-10.3,2.8-15.2,4.8
		c-12.3,5.2-24.3,11.8-33.2,22c-2.9,3.4-5.7,7.4-6.4,12c-0.4,2.2,0.6,4.6,2.6,5.6c3.4,1.9,7.4,1.1,10.9,0.2
		c8.5-2.3,16.5-6.5,23.5-12c2.1-1.6,4-3.6,6.1-5.2c0.4,3.9-0.4,8.2,1.8,11.8c1.1,1.9,3.5,2.1,5.5,1.9c3.4-0.3,7-0.5,10.2-1.9
		c0.3-2.4-1.2-4.8-0.7-7.2c0.6-3.8,2.2-7.4,3.7-11c2.3-5.1,4.8-10.1,7.7-14.8C325.5,42.9,326.2,42,326,41.1z M307.5,48.6
		c-6.5,6.8-13.2,13.5-20.8,19.1c-2.6,1.8-5.2,3.7-8.3,4.2c-1.5,0.3-3-1.3-2.6-2.8c0.6-2.8,2.6-5.1,4.5-7.2
		c6.6-6.9,14.4-12.8,23.1-16.9c2.4-1,5-2,7.6-1.2C310.5,45.7,308.8,47.1,307.5,48.6z"></path>
        <path class="st0 lpOTwyhK_9" d="M150.5,70.7c-0.8-4.4-4.4-7.5-7.9-10c-2.3-1.7-5.3-2.5-8.1-1.6c-1.7,0.6-3.1,1.7-4.3,3
		c-1.4,1.3-1.9,3.3-3.1,4.7c-1.5,1.2-3.2,2-4.8,3.1c-8,5.4-15,12.4-19.8,20.7c-4,6.9-6.6,14.8-6.6,22.9c0,2.1,0.6,4.4,2.4,5.7
		c3.2,2.5,7.6,2.3,11.4,1.7c8-1.5,15.1-6.1,21.2-11.4c7.6-6.8,14.5-14.8,18.3-24.4C151.2,80.5,151.4,75.4,150.5,70.7z M138.9,90.3
		c-3.1,5-6.5,9.9-10.7,14.1c-1.8,1.8-3.8,3.7-6.3,4.4c-2.2,0.6-4.9-1-5.1-3.3c-0.3-2.4,0-4.9,0.3-7.3c0.9-7,3-14,7-19.9
		c1.1-1.7,2.4-3.1,4-4.3c0.4,2.4,0.8,4.9,2.4,6.8c2.4,3.3,6.2,5.1,10,6.4C140,88.4,139.5,89.4,138.9,90.3z"></path>
        <path class="st0 lpOTwyhK_10" d="M213.3,106.3c111.3-25.2,225.1-37.7,339-44.1c3-0.1,6.2-0.7,9.2,0.5c2.1,0.8,3.4,2.8,4.3,4.8V71
		c-1.1,1.9-2.5,3.8-4.7,4.5c-2.7,0.8-5.5,0.5-8.2,0.6c-95.9,2.6-191.8,10.7-286.3,27.1c-74.3,12.9-147.8,31-219.5,54.5
		c-1.2,0.6-3.3,0.3-3.1-1.4c2.5-1.7,5.6-2.4,8.4-3.4C105,134.1,158.8,118.6,213.3,106.3L213.3,106.3z"></path>
</g>
    <style data-made-with="vivus-instant">.lpOTwyhK_0{stroke-dasharray:352 354;stroke-dashoffset:353;animation:lpOTwyhK_draw 1333ms linear 0ms forwards;}.lpOTwyhK_1{stroke-dasharray:262 264;stroke-dashoffset:263;animation:lpOTwyhK_draw 1333ms linear 66ms forwards;}.lpOTwyhK_2{stroke-dasharray:710 712;stroke-dashoffset:711;animation:lpOTwyhK_draw 1333ms linear 133ms forwards;}.lpOTwyhK_3{stroke-dasharray:372 374;stroke-dashoffset:373;animation:lpOTwyhK_draw 1333ms linear 199ms forwards;}.lpOTwyhK_4{stroke-dasharray:46 48;stroke-dashoffset:47;animation:lpOTwyhK_draw 1333ms linear 266ms forwards;}.lpOTwyhK_5{stroke-dasharray:263 265;stroke-dashoffset:264;animation:lpOTwyhK_draw 1333ms linear 333ms forwards;}.lpOTwyhK_6{stroke-dasharray:139 141;stroke-dashoffset:140;animation:lpOTwyhK_draw 1333ms linear 399ms forwards;}.lpOTwyhK_7{stroke-dasharray:182 184;stroke-dashoffset:183;animation:lpOTwyhK_draw 1333ms linear 466ms forwards;}.lpOTwyhK_8{stroke-dasharray:302 304;stroke-dashoffset:303;animation:lpOTwyhK_draw 1333ms linear 533ms forwards;}.lpOTwyhK_9{stroke-dasharray:270 272;stroke-dashoffset:271;animation:lpOTwyhK_draw 1333ms linear 599ms forwards;}.lpOTwyhK_10{stroke-dasharray:1072 1074;stroke-dashoffset:1073;animation:lpOTwyhK_draw 1333ms linear 666ms forwards;}@keyframes lpOTwyhK_draw{100%{stroke-dashoffset:0;}}@keyframes lpOTwyhK_fade{0%{stroke-opacity:1;}93.54838709677419%{stroke-opacity:1;}100%{stroke-opacity:0;}}</style></svg>
